<svg width="512" height="516" viewBox="0 0 512 516" fill="none" xmlns="http://www.w3.org/2000/svg">
<path d="M396.5 91.4497V499C396.5 506.456 390.456 512.5 383 512.5H17C9.54416 512.5 3.5 506.456 3.5 499V20.9999C3.5 13.5441 9.54416 7.49994 17 7.49994H312.55L396.5 91.4497Z" fill="#FF944D" stroke="#343434" stroke-width="7"/>
<path d="M313.5 79L313.5 9.65688C313.5 9.49625 313.541 9.41923 313.574 9.37329C313.617 9.31149 313.695 9.24192 313.809 9.19494C313.922 9.14797 314.027 9.14192 314.101 9.15483C314.156 9.16442 314.24 9.18975 314.354 9.30333L395.697 90.6464C395.81 90.76 395.835 90.8436 395.845 90.8989C395.858 90.9734 395.852 91.0779 395.805 91.1913C395.758 91.3047 395.688 91.3828 395.627 91.4264C395.581 91.4587 395.504 91.4999 395.343 91.4999L326 91.4999C319.097 91.4999 313.5 85.9035 313.5 79Z" fill="#FF6600" stroke="#343434" stroke-width="7"/>
<path d="M508.5 69.9999V430.382L480.282 507.755C479.242 510.604 476.533 512.5 473.5 512.5C470.467 512.5 467.758 510.604 466.718 507.755L438.5 430.382V69.9999C438.5 66.4101 441.41 63.4999 445 63.4999H502C505.59 63.4999 508.5 66.4101 508.5 69.9999Z" fill="#FF6600" stroke="#343434" stroke-width="7"/>
<path d="M469 7.49994H478C489.322 7.49994 498.5 16.6781 498.5 27.9999V63.4999H448.5V27.9999C448.5 16.6781 457.678 7.49994 469 7.49994Z" fill="#FFAA72" stroke="#343434" stroke-width="7"/>
<line x1="435" y1="288.5" x2="512" y2="288.5" stroke="#343434" stroke-width="7"/>
<line x1="435" y1="427.5" x2="512" y2="427.5" stroke="#343434" stroke-width="7"/>
<rect x="438.5" y="288.5" width="70" height="139" fill="#D9D9D9" stroke="#343434" stroke-width="7"/>
<path d="M108.692 389.813C101.066 383.574 91.3602 380.454 81.5267 381.078C71.6933 381.703 62.4608 386.027 55.6851 393.181C48.9093 400.335 45.0924 409.788 45.0017 419.641C44.9109 429.494 48.553 439.016 55.1959 446.293C61.8388 453.57 70.99 458.063 80.8103 458.869C90.6305 459.675 100.392 456.734 108.132 450.637C114.523 445.603 119.146 438.725 121.417 431" stroke="#343434" stroke-width="7"/>
<rect x="132.298" y="383.879" width="11.4648" height="71.3565" rx="5.73238" transform="rotate(45 132.298 383.879)" fill="#D9D9D9"/>
<rect x="60.9868" y="413.418" width="11.4333" height="41.0904" rx="5.71666" transform="rotate(-45 60.9868 413.418)" fill="#D9D9D9"/>
<path d="M108.692 283.813C101.066 277.574 91.3602 274.454 81.5267 275.078C71.6933 275.703 62.4608 280.027 55.6851 287.181C48.9093 294.335 45.0924 303.788 45.0017 313.641C44.9109 323.494 48.553 333.016 55.1959 340.293C61.8388 347.57 70.99 352.063 80.8103 352.869C90.6305 353.675 100.392 350.734 108.132 344.637C114.523 339.603 119.146 332.725 121.417 325" stroke="#343434" stroke-width="7"/>
<rect x="132.298" y="277.879" width="11.4648" height="71.3565" rx="5.73238" transform="rotate(45 132.298 277.879)" fill="#D9D9D9"/>
<rect x="60.9868" y="307.418" width="11.4333" height="41.0904" rx="5.71666" transform="rotate(-45 60.9868 307.418)" fill="#D9D9D9"/>
<path d="M108.692 68.8126C101.066 62.5741 91.3602 59.4536 81.5267 60.0785C71.6933 60.7033 62.4608 65.0272 55.6851 72.1809C48.9093 79.3346 45.0924 88.7879 45.0017 98.6408C44.9109 108.494 48.553 118.016 55.1959 125.293C61.8388 132.57 70.99 137.063 80.8103 137.869C90.6305 138.675 100.392 135.734 108.132 129.637C114.523 124.603 119.146 117.725 121.417 110" stroke="#343434" stroke-width="7"/>
<rect x="132.298" y="62.8788" width="11.4648" height="71.3565" rx="5.73238" transform="rotate(45 132.298 62.8788)" fill="#D9D9D9"/>
<rect x="60.9868" y="92.4177" width="11.4333" height="41.0904" rx="5.71666" transform="rotate(-45 60.9868 92.4177)" fill="#D9D9D9"/>
<circle cx="83.5" cy="206.5" r="39" stroke="#343434" stroke-width="7"/>
<rect x="158" y="81.9999" width="104" height="7" rx="3.5" fill="#343434"/>
<rect x="158" y="110" width="104" height="7" rx="3.5" fill="#343434"/>
<rect x="158" y="189" width="85" height="7" rx="3.5" fill="#343434"/>
<rect x="265" y="189" width="94" height="7" rx="3.5" fill="#343434"/>
<rect x="158" y="217" width="143" height="7" rx="3.5" fill="#343434"/>
<rect x="158" y="296" width="104" height="7" rx="3.5" fill="#343434"/>
<rect x="286" y="296" width="72" height="7" rx="3.5" fill="#343434"/>
<rect x="158" y="324" width="157" height="7" rx="3.5" fill="#343434"/>
<rect x="158" y="431" width="74" height="7" rx="3.5" fill="#343434"/>
<rect x="255" y="431" width="104" height="7" rx="3.5" fill="#343434"/>
<rect x="158" y="403" width="48" height="7" rx="3.5" fill="#343434"/>
<rect x="256" y="403" width="104" height="7" rx="3.5" fill="#343434"/>
</svg>
