<svg width="1692" height="516" viewBox="0 0 1692 516" fill="none" xmlns="http://www.w3.org/2000/svg">
<path d="M396.5 91.4497V499C396.5 506.456 390.456 512.5 383 512.5H17C9.54416 512.5 3.5 506.456 3.5 499V20.9999C3.5 13.5441 9.54416 7.49994 17 7.49994H312.55L396.5 91.4497Z" fill="#FF944D" stroke="#343434" stroke-width="7"/>
<path d="M313.5 79L313.5 9.65688C313.5 9.49625 313.541 9.41923 313.574 9.37329C313.617 9.31149 313.695 9.24192 313.809 9.19494C313.922 9.14797 314.027 9.14192 314.101 9.15483C314.156 9.16442 314.24 9.18975 314.354 9.30333L395.697 90.6464C395.81 90.76 395.835 90.8436 395.845 90.8989C395.858 90.9734 395.852 91.0779 395.805 91.1913C395.758 91.3047 395.688 91.3828 395.627 91.4264C395.581 91.4587 395.504 91.4999 395.343 91.4999L326 91.4999C319.097 91.4999 313.5 85.9035 313.5 79Z" fill="#FF6600" stroke="#343434" stroke-width="7"/>
<path d="M508.5 69.9999V430.382L480.282 507.755C479.242 510.604 476.533 512.5 473.5 512.5C470.467 512.5 467.758 510.604 466.718 507.755L438.5 430.382V69.9999C438.5 66.4101 441.41 63.4999 445 63.4999H502C505.59 63.4999 508.5 66.4101 508.5 69.9999Z" fill="#FF6600" stroke="#343434" stroke-width="7"/>
<path d="M469 7.49994H478C489.322 7.49994 498.5 16.6781 498.5 27.9999V63.4999H448.5V27.9999C448.5 16.6781 457.678 7.49994 469 7.49994Z" fill="#FFAA72" stroke="#343434" stroke-width="7"/>
<line x1="435" y1="288.5" x2="512" y2="288.5" stroke="#343434" stroke-width="7"/>
<line x1="435" y1="427.5" x2="512" y2="427.5" stroke="#343434" stroke-width="7"/>
<rect x="438.5" y="288.5" width="70" height="139" fill="#D9D9D9" stroke="#343434" stroke-width="7"/>
<path d="M108.692 389.813C101.066 383.574 91.3602 380.454 81.5267 381.078C71.6933 381.703 62.4608 386.027 55.6851 393.181C48.9093 400.335 45.0924 409.788 45.0017 419.641C44.9109 429.494 48.553 439.016 55.1959 446.293C61.8388 453.57 70.99 458.063 80.8103 458.869C90.6305 459.675 100.392 456.734 108.132 450.637C114.523 445.603 119.146 438.725 121.417 431" stroke="#343434" stroke-width="7"/>
<rect x="132.298" y="383.879" width="11.4648" height="71.3565" rx="5.73238" transform="rotate(45 132.298 383.879)" fill="#D9D9D9"/>
<rect x="60.9868" y="413.418" width="11.4333" height="41.0904" rx="5.71666" transform="rotate(-45 60.9868 413.418)" fill="#D9D9D9"/>
<path d="M108.692 283.813C101.066 277.574 91.3602 274.454 81.5267 275.078C71.6933 275.703 62.4608 280.027 55.6851 287.181C48.9093 294.335 45.0924 303.788 45.0017 313.641C44.9109 323.494 48.553 333.016 55.1959 340.293C61.8388 347.57 70.99 352.063 80.8103 352.869C90.6305 353.675 100.392 350.734 108.132 344.637C114.523 339.603 119.146 332.725 121.417 325" stroke="#343434" stroke-width="7"/>
<rect x="132.298" y="277.879" width="11.4648" height="71.3565" rx="5.73238" transform="rotate(45 132.298 277.879)" fill="#D9D9D9"/>
<rect x="60.9868" y="307.418" width="11.4333" height="41.0904" rx="5.71666" transform="rotate(-45 60.9868 307.418)" fill="#D9D9D9"/>
<path d="M108.692 68.8126C101.066 62.5741 91.3602 59.4536 81.5267 60.0785C71.6933 60.7033 62.4608 65.0272 55.6851 72.1809C48.9093 79.3346 45.0924 88.7879 45.0017 98.6408C44.9109 108.494 48.553 118.016 55.1959 125.293C61.8388 132.57 70.99 137.063 80.8103 137.869C90.6305 138.675 100.392 135.734 108.132 129.637C114.523 124.603 119.146 117.725 121.417 110" stroke="#343434" stroke-width="7"/>
<rect x="132.298" y="62.8788" width="11.4648" height="71.3565" rx="5.73238" transform="rotate(45 132.298 62.8788)" fill="#D9D9D9"/>
<rect x="60.9868" y="92.4177" width="11.4333" height="41.0904" rx="5.71666" transform="rotate(-45 60.9868 92.4177)" fill="#D9D9D9"/>
<circle cx="83.5" cy="206.5" r="39" stroke="#343434" stroke-width="7"/>
<rect x="158" y="81.9999" width="104" height="7" rx="3.5" fill="#343434"/>
<rect x="158" y="110" width="104" height="7" rx="3.5" fill="#343434"/>
<rect x="158" y="189" width="85" height="7" rx="3.5" fill="#343434"/>
<rect x="265" y="189" width="94" height="7" rx="3.5" fill="#343434"/>
<rect x="158" y="217" width="143" height="7" rx="3.5" fill="#343434"/>
<rect x="158" y="296" width="104" height="7" rx="3.5" fill="#343434"/>
<rect x="286" y="296" width="72" height="7" rx="3.5" fill="#343434"/>
<rect x="158" y="324" width="157" height="7" rx="3.5" fill="#343434"/>
<rect x="158" y="431" width="74" height="7" rx="3.5" fill="#343434"/>
<rect x="255" y="431" width="104" height="7" rx="3.5" fill="#343434"/>
<rect x="158" y="403" width="48" height="7" rx="3.5" fill="#343434"/>
<rect x="256" y="403" width="104" height="7" rx="3.5" fill="#343434"/>
<path d="M707.193 290.637H654.166V250.939H707.193C714.42 250.939 720.279 249.719 724.771 247.277C729.264 244.836 732.535 241.467 734.586 237.17C736.734 232.775 737.809 227.844 737.809 222.375C737.809 216.516 736.734 211.096 734.586 206.115C732.535 201.135 729.264 197.131 724.771 194.104C720.279 190.979 714.42 189.416 707.193 189.416H673.502V363H622.086V149.719H707.193C724.283 149.719 738.98 152.844 751.285 159.094C763.688 165.344 773.209 173.938 779.85 184.875C786.49 195.715 789.811 208.117 789.811 222.082C789.811 235.852 786.49 247.863 779.85 258.117C773.209 268.371 763.688 276.379 751.285 282.141C738.98 287.805 724.283 290.637 707.193 290.637ZM864.957 243.762V363H815.592V204.504H861.734L864.957 243.762ZM911.832 203.332L910.953 249.182C909 248.986 906.363 248.742 903.043 248.449C899.723 248.156 896.939 248.01 894.693 248.01C888.932 248.01 883.951 248.693 879.752 250.061C875.65 251.33 872.232 253.283 869.498 255.92C866.861 258.459 864.908 261.682 863.639 265.588C862.467 269.494 861.93 274.035 862.027 279.211L853.092 273.352C853.092 262.707 854.117 253.039 856.168 244.348C858.316 235.559 861.344 227.99 865.25 221.643C869.156 215.197 873.893 210.266 879.459 206.848C885.025 203.332 891.275 201.574 898.209 201.574C900.65 201.574 903.043 201.721 905.387 202.014C907.828 202.307 909.977 202.746 911.832 203.332ZM980.973 204.504V363H931.461V204.504H980.973ZM928.531 163.635C928.531 156.604 931.07 150.842 936.148 146.35C941.227 141.857 947.818 139.611 955.924 139.611C964.029 139.611 970.621 141.857 975.699 146.35C980.777 150.842 983.316 156.604 983.316 163.635C983.316 170.666 980.777 176.428 975.699 180.92C970.621 185.412 964.029 187.658 955.924 187.658C947.818 187.658 941.227 185.412 936.148 180.92C931.07 176.428 928.531 170.666 928.531 163.635ZM1479.02 243.762V363H1429.65V204.504H1475.8L1479.02 243.762ZM1525.89 203.332L1525.02 249.182C1523.06 248.986 1520.43 248.742 1517.11 248.449C1513.79 248.156 1511 248.01 1508.76 248.01C1502.99 248.01 1498.01 248.693 1493.81 250.061C1489.71 251.33 1486.29 253.283 1483.56 255.92C1480.92 258.459 1478.97 261.682 1477.7 265.588C1476.53 269.494 1475.99 274.035 1476.09 279.211L1467.15 273.352C1467.15 262.707 1468.18 253.039 1470.23 244.348C1472.38 235.559 1475.41 227.99 1479.31 221.643C1483.22 215.197 1487.96 210.266 1493.52 206.848C1499.09 203.332 1505.34 201.574 1512.27 201.574C1514.71 201.574 1517.11 201.721 1519.45 202.014C1521.89 202.307 1524.04 202.746 1525.89 203.332ZM1594.16 344.396L1635.17 204.504H1688.2L1624.48 386.584C1623.11 390.588 1621.3 394.885 1619.06 399.475C1616.81 404.162 1613.74 408.605 1609.83 412.805C1605.92 417.004 1600.89 420.422 1594.74 423.059C1588.69 425.695 1581.17 427.014 1572.18 427.014C1567.4 427.014 1563.88 426.77 1561.64 426.281C1559.49 425.891 1556.17 425.158 1551.68 424.084V388.781C1552.95 388.781 1554.02 388.781 1554.9 388.781C1555.88 388.781 1556.95 388.781 1558.12 388.781C1563.39 388.781 1567.59 388.244 1570.72 387.17C1573.94 386.096 1576.38 384.533 1578.04 382.482C1579.8 380.432 1581.17 377.941 1582.14 375.012L1594.16 344.396ZM1583.76 204.504L1614.96 315.393L1620.38 367.688H1587.27L1530.88 204.504H1583.76Z" fill="#FF6600"/>
<path d="M1061.25 238.049V363H1011.88V204.504H1058.17L1061.25 238.049ZM1055.24 278.332L1043.96 278.625C1043.96 267.492 1045.28 257.238 1047.92 247.863C1050.55 238.488 1054.46 230.334 1059.63 223.4C1064.81 216.467 1071.16 211.096 1078.68 207.287C1086.29 203.479 1095.08 201.574 1105.04 201.574C1111.98 201.574 1118.28 202.648 1123.94 204.797C1129.61 206.848 1134.49 210.119 1138.59 214.611C1142.69 219.006 1145.82 224.768 1147.96 231.896C1150.21 238.928 1151.33 247.375 1151.33 257.238V363H1101.97V263.537C1101.97 256.799 1101.19 251.721 1099.62 248.303C1098.16 244.885 1096.01 242.59 1093.18 241.418C1090.35 240.246 1086.88 239.66 1082.78 239.66C1078.48 239.66 1074.62 240.637 1071.21 242.59C1067.79 244.543 1064.86 247.277 1062.42 250.793C1060.07 254.211 1058.27 258.264 1057 262.951C1055.83 267.639 1055.24 272.766 1055.24 278.332ZM1145.77 278.332L1132 278.625C1132 267.492 1133.22 257.238 1135.66 247.863C1138.2 238.488 1141.96 230.334 1146.94 223.4C1152.02 216.467 1158.32 211.096 1165.84 207.287C1173.36 203.479 1182.1 201.574 1192.06 201.574C1199.28 201.574 1205.92 202.648 1211.98 204.797C1218.03 206.945 1223.26 210.412 1227.65 215.197C1232.05 219.982 1235.46 226.33 1237.91 234.24C1240.35 242.053 1241.57 251.721 1241.57 263.244V363H1192.06V263.244C1192.06 256.701 1191.28 251.77 1189.71 248.449C1188.25 245.031 1186.1 242.736 1183.27 241.564C1180.44 240.295 1177.07 239.66 1173.16 239.66C1168.47 239.66 1164.42 240.637 1161 242.59C1157.58 244.543 1154.7 247.277 1152.36 250.793C1150.11 254.211 1148.45 258.264 1147.38 262.951C1146.3 267.639 1145.77 272.766 1145.77 278.332ZM1352.16 323.156V257.824C1352.16 253.332 1351.53 249.475 1350.26 246.252C1348.99 243.029 1346.99 240.539 1344.25 238.781C1341.52 236.926 1337.86 235.998 1333.27 235.998C1329.56 235.998 1326.38 236.633 1323.75 237.902C1321.11 239.172 1319.11 241.076 1317.74 243.615C1316.37 246.154 1315.69 249.377 1315.69 253.283H1266.32C1266.32 245.959 1267.94 239.172 1271.16 232.922C1274.48 226.574 1279.17 221.057 1285.22 216.369C1291.37 211.682 1298.7 208.068 1307.19 205.529C1315.79 202.893 1325.36 201.574 1335.9 201.574C1348.5 201.574 1359.73 203.674 1369.6 207.873C1379.56 212.072 1387.42 218.371 1393.18 226.77C1398.94 235.07 1401.82 245.52 1401.82 258.117V323.01C1401.82 333.361 1402.41 341.223 1403.58 346.594C1404.75 351.867 1406.41 356.506 1408.56 360.51V363H1359.05C1356.71 358.117 1354.95 352.16 1353.78 345.129C1352.7 338 1352.16 330.676 1352.16 323.156ZM1358.17 266.174L1358.46 292.541H1336.64C1332.05 292.541 1328.14 293.176 1324.92 294.445C1321.79 295.715 1319.25 297.473 1317.3 299.719C1315.45 301.867 1314.08 304.309 1313.2 307.043C1312.42 309.777 1312.03 312.658 1312.03 315.686C1312.03 318.615 1312.71 321.252 1314.08 323.596C1315.54 325.842 1317.5 327.6 1319.94 328.869C1322.38 330.139 1325.11 330.773 1328.14 330.773C1333.61 330.773 1338.25 329.748 1342.06 327.697C1345.96 325.549 1348.94 322.961 1350.99 319.934C1353.04 316.906 1354.07 314.074 1354.07 311.438L1364.91 331.652C1362.96 335.559 1360.71 339.514 1358.17 343.518C1355.73 347.521 1352.65 351.232 1348.94 354.65C1345.33 357.971 1340.88 360.705 1335.61 362.854C1330.34 364.904 1323.94 365.93 1316.42 365.93C1306.66 365.93 1297.67 363.928 1289.47 359.924C1281.36 355.92 1274.87 350.354 1269.99 343.225C1265.1 335.998 1262.66 327.697 1262.66 318.322C1262.66 310.119 1264.13 302.795 1267.06 296.35C1270.08 289.904 1274.62 284.436 1280.68 279.943C1286.73 275.451 1294.45 272.033 1303.82 269.689C1313.2 267.346 1324.23 266.174 1336.93 266.174H1358.17Z" fill="#FF6600"/>
<path d="M1061.25 238.049V363H1011.88V204.504H1058.17L1061.25 238.049ZM1055.24 278.332L1043.96 278.625C1043.96 267.492 1045.28 257.238 1047.92 247.863C1050.55 238.488 1054.46 230.334 1059.63 223.4C1064.81 216.467 1071.16 211.096 1078.68 207.287C1086.29 203.479 1095.08 201.574 1105.04 201.574C1111.98 201.574 1118.28 202.648 1123.94 204.797C1129.61 206.848 1134.49 210.119 1138.59 214.611C1142.69 219.006 1145.82 224.768 1147.96 231.896C1150.21 238.928 1151.33 247.375 1151.33 257.238V363H1101.97V263.537C1101.97 256.799 1101.19 251.721 1099.62 248.303C1098.16 244.885 1096.01 242.59 1093.18 241.418C1090.35 240.246 1086.88 239.66 1082.78 239.66C1078.48 239.66 1074.62 240.637 1071.21 242.59C1067.79 244.543 1064.86 247.277 1062.42 250.793C1060.07 254.211 1058.27 258.264 1057 262.951C1055.83 267.639 1055.24 272.766 1055.24 278.332ZM1145.77 278.332L1132 278.625C1132 267.492 1133.22 257.238 1135.66 247.863C1138.2 238.488 1141.96 230.334 1146.94 223.4C1152.02 216.467 1158.32 211.096 1165.84 207.287C1173.36 203.479 1182.1 201.574 1192.06 201.574C1199.28 201.574 1205.92 202.648 1211.98 204.797C1218.03 206.945 1223.26 210.412 1227.65 215.197C1232.05 219.982 1235.46 226.33 1237.91 234.24C1240.35 242.053 1241.57 251.721 1241.57 263.244V363H1192.06V263.244C1192.06 256.701 1191.28 251.77 1189.71 248.449C1188.25 245.031 1186.1 242.736 1183.27 241.564C1180.44 240.295 1177.07 239.66 1173.16 239.66C1168.47 239.66 1164.42 240.637 1161 242.59C1157.58 244.543 1154.7 247.277 1152.36 250.793C1150.11 254.211 1148.45 258.264 1147.38 262.951C1146.3 267.639 1145.77 272.766 1145.77 278.332ZM1352.16 323.156V257.824C1352.16 253.332 1351.53 249.475 1350.26 246.252C1348.99 243.029 1346.99 240.539 1344.25 238.781C1341.52 236.926 1337.86 235.998 1333.27 235.998C1329.56 235.998 1326.38 236.633 1323.75 237.902C1321.11 239.172 1319.11 241.076 1317.74 243.615C1316.37 246.154 1315.69 249.377 1315.69 253.283H1266.32C1266.32 245.959 1267.94 239.172 1271.16 232.922C1274.48 226.574 1279.17 221.057 1285.22 216.369C1291.37 211.682 1298.7 208.068 1307.19 205.529C1315.79 202.893 1325.36 201.574 1335.9 201.574C1348.5 201.574 1359.73 203.674 1369.6 207.873C1379.56 212.072 1387.42 218.371 1393.18 226.77C1398.94 235.07 1401.82 245.52 1401.82 258.117V323.01C1401.82 333.361 1402.41 341.223 1403.58 346.594C1404.75 351.867 1406.41 356.506 1408.56 360.51V363H1359.05C1356.71 358.117 1354.95 352.16 1353.78 345.129C1352.7 338 1352.16 330.676 1352.16 323.156ZM1358.17 266.174L1358.46 292.541H1336.64C1332.05 292.541 1328.14 293.176 1324.92 294.445C1321.79 295.715 1319.25 297.473 1317.3 299.719C1315.45 301.867 1314.08 304.309 1313.2 307.043C1312.42 309.777 1312.03 312.658 1312.03 315.686C1312.03 318.615 1312.71 321.252 1314.08 323.596C1315.54 325.842 1317.5 327.6 1319.94 328.869C1322.38 330.139 1325.11 330.773 1328.14 330.773C1333.61 330.773 1338.25 329.748 1342.06 327.697C1345.96 325.549 1348.94 322.961 1350.99 319.934C1353.04 316.906 1354.07 314.074 1354.07 311.438L1364.91 331.652C1362.96 335.559 1360.71 339.514 1358.17 343.518C1355.73 347.521 1352.65 351.232 1348.94 354.65C1345.33 357.971 1340.88 360.705 1335.61 362.854C1330.34 364.904 1323.94 365.93 1316.42 365.93C1306.66 365.93 1297.67 363.928 1289.47 359.924C1281.36 355.92 1274.87 350.354 1269.99 343.225C1265.1 335.998 1262.66 327.697 1262.66 318.322C1262.66 310.119 1264.13 302.795 1267.06 296.35C1270.08 289.904 1274.62 284.436 1280.68 279.943C1286.73 275.451 1294.45 272.033 1303.82 269.689C1313.2 267.346 1324.23 266.174 1336.93 266.174H1358.17Z" fill="#343434"/>
</svg>
