<svg width="1067" height="289" viewBox="0 0 1067 289" fill="none" xmlns="http://www.w3.org/2000/svg">
<path d="M85.1934 151.637H32.166V111.939H85.1934C92.4199 111.939 98.2793 110.719 102.771 108.277C107.264 105.836 110.535 102.467 112.586 98.1699C114.734 93.7754 115.809 88.8438 115.809 83.375C115.809 77.5156 114.734 72.0957 112.586 67.1152C110.535 62.1348 107.264 58.1309 102.771 55.1035C98.2793 51.9785 92.4199 50.416 85.1934 50.416H51.502V224H0.0859375V10.7188H85.1934C102.283 10.7188 116.98 13.8438 129.285 20.0938C141.688 26.3438 151.209 34.9375 157.85 45.875C164.49 56.7148 167.811 69.1172 167.811 83.082C167.811 96.8516 164.49 108.863 157.85 119.117C151.209 129.371 141.688 137.379 129.285 143.141C116.98 148.805 102.283 151.637 85.1934 151.637ZM242.957 104.762V224H193.592V65.5039H239.734L242.957 104.762ZM289.832 64.332L288.953 110.182C287 109.986 284.363 109.742 281.043 109.449C277.723 109.156 274.939 109.01 272.693 109.01C266.932 109.01 261.951 109.693 257.752 111.061C253.65 112.33 250.232 114.283 247.498 116.92C244.861 119.459 242.908 122.682 241.639 126.588C240.467 130.494 239.93 135.035 240.027 140.211L231.092 134.352C231.092 123.707 232.117 114.039 234.168 105.348C236.316 96.5586 239.344 88.9902 243.25 82.6426C247.156 76.1973 251.893 71.2656 257.459 67.8477C263.025 64.332 269.275 62.5742 276.209 62.5742C278.65 62.5742 281.043 62.7207 283.387 63.0137C285.828 63.3066 287.977 63.7461 289.832 64.332ZM358.973 65.5039V224H309.461V65.5039H358.973ZM306.531 24.6348C306.531 17.6035 309.07 11.8418 314.148 7.34961C319.227 2.85742 325.818 0.611328 333.924 0.611328C342.029 0.611328 348.621 2.85742 353.699 7.34961C358.777 11.8418 361.316 17.6035 361.316 24.6348C361.316 31.666 358.777 37.4277 353.699 41.9199C348.621 46.4121 342.029 48.6582 333.924 48.6582C325.818 48.6582 319.227 46.4121 314.148 41.9199C309.07 37.4277 306.531 31.666 306.531 24.6348ZM857.02 104.762V224H807.654V65.5039H853.797L857.02 104.762ZM903.895 64.332L903.016 110.182C901.062 109.986 898.426 109.742 895.105 109.449C891.785 109.156 889.002 109.01 886.756 109.01C880.994 109.01 876.014 109.693 871.814 111.061C867.713 112.33 864.295 114.283 861.561 116.92C858.924 119.459 856.971 122.682 855.701 126.588C854.529 130.494 853.992 135.035 854.09 140.211L845.154 134.352C845.154 123.707 846.18 114.039 848.23 105.348C850.379 96.5586 853.406 88.9902 857.312 82.6426C861.219 76.1973 865.955 71.2656 871.521 67.8477C877.088 64.332 883.338 62.5742 890.271 62.5742C892.713 62.5742 895.105 62.7207 897.449 63.0137C899.891 63.3066 902.039 63.7461 903.895 64.332ZM972.156 205.396L1013.17 65.5039H1066.2L1002.48 247.584C1001.11 251.588 999.305 255.885 997.059 260.475C994.812 265.162 991.736 269.605 987.83 273.805C983.924 278.004 978.895 281.422 972.742 284.059C966.688 286.695 959.168 288.014 950.184 288.014C945.398 288.014 941.883 287.77 939.637 287.281C937.488 286.891 934.168 286.158 929.676 285.084V249.781C930.945 249.781 932.02 249.781 932.898 249.781C933.875 249.781 934.949 249.781 936.121 249.781C941.395 249.781 945.594 249.244 948.719 248.17C951.941 247.096 954.383 245.533 956.043 243.482C957.801 241.432 959.168 238.941 960.145 236.012L972.156 205.396ZM961.756 65.5039L992.957 176.393L998.377 228.688H965.271L908.875 65.5039H961.756Z" fill="#FF6600"/>
<path d="M439.246 99.0488V224H389.881V65.5039H436.17L439.246 99.0488ZM433.24 139.332L421.961 139.625C421.961 128.492 423.279 118.238 425.916 108.863C428.553 99.4883 432.459 91.334 437.635 84.4004C442.811 77.4668 449.158 72.0957 456.678 68.2871C464.295 64.4785 473.084 62.5742 483.045 62.5742C489.979 62.5742 496.277 63.6484 501.941 65.7969C507.605 67.8477 512.488 71.1191 516.59 75.6113C520.691 80.0059 523.816 85.7676 525.965 92.8965C528.211 99.9277 529.334 108.375 529.334 118.238V224H479.969V124.537C479.969 117.799 479.188 112.721 477.625 109.303C476.16 105.885 474.012 103.59 471.18 102.418C468.348 101.246 464.881 100.66 460.779 100.66C456.482 100.66 452.625 101.637 449.207 103.59C445.789 105.543 442.859 108.277 440.418 111.793C438.074 115.211 436.268 119.264 434.998 123.951C433.826 128.639 433.24 133.766 433.24 139.332ZM523.768 139.332L509.998 139.625C509.998 128.492 511.219 118.238 513.66 108.863C516.199 99.4883 519.959 91.334 524.939 84.4004C530.018 77.4668 536.316 72.0957 543.836 68.2871C551.355 64.4785 560.096 62.5742 570.057 62.5742C577.283 62.5742 583.924 63.6484 589.979 65.7969C596.033 67.9453 601.258 71.4121 605.652 76.1973C610.047 80.9824 613.465 87.3301 615.906 95.2402C618.348 103.053 619.568 112.721 619.568 124.244V224H570.057V124.244C570.057 117.701 569.275 112.77 567.713 109.449C566.248 106.031 564.1 103.736 561.268 102.564C558.436 101.295 555.066 100.66 551.16 100.66C546.473 100.66 542.42 101.637 539.002 103.59C535.584 105.543 532.703 108.277 530.359 111.793C528.113 115.211 526.453 119.264 525.379 123.951C524.305 128.639 523.768 133.766 523.768 139.332ZM730.164 184.156V118.824C730.164 114.332 729.529 110.475 728.26 107.252C726.99 104.029 724.988 101.539 722.254 99.7812C719.52 97.9258 715.857 96.998 711.268 96.998C707.557 96.998 704.383 97.6328 701.746 98.9023C699.109 100.172 697.107 102.076 695.74 104.615C694.373 107.154 693.689 110.377 693.689 114.283H644.324C644.324 106.959 645.936 100.172 649.158 93.9219C652.479 87.5742 657.166 82.0566 663.221 77.3691C669.373 72.6816 676.697 69.0684 685.193 66.5293C693.787 63.8926 703.357 62.5742 713.904 62.5742C726.502 62.5742 737.732 64.6738 747.596 68.873C757.557 73.0723 765.418 79.3711 771.18 87.7695C776.941 96.0703 779.822 106.52 779.822 119.117V184.01C779.822 194.361 780.408 202.223 781.58 207.594C782.752 212.867 784.412 217.506 786.561 221.51V224H737.049C734.705 219.117 732.947 213.16 731.775 206.129C730.701 199 730.164 191.676 730.164 184.156ZM736.17 127.174L736.463 153.541H714.637C710.047 153.541 706.141 154.176 702.918 155.445C699.793 156.715 697.254 158.473 695.301 160.719C693.445 162.867 692.078 165.309 691.199 168.043C690.418 170.777 690.027 173.658 690.027 176.686C690.027 179.615 690.711 182.252 692.078 184.596C693.543 186.842 695.496 188.6 697.938 189.869C700.379 191.139 703.113 191.773 706.141 191.773C711.609 191.773 716.248 190.748 720.057 188.697C723.963 186.549 726.941 183.961 728.992 180.934C731.043 177.906 732.068 175.074 732.068 172.438L742.908 192.652C740.955 196.559 738.709 200.514 736.17 204.518C733.729 208.521 730.652 212.232 726.941 215.65C723.328 218.971 718.885 221.705 713.611 223.854C708.338 225.904 701.941 226.93 694.422 226.93C684.656 226.93 675.672 224.928 667.469 220.924C659.363 216.92 652.869 211.354 647.986 204.225C643.104 196.998 640.662 188.697 640.662 179.322C640.662 171.119 642.127 163.795 645.057 157.35C648.084 150.904 652.625 145.436 658.68 140.943C664.734 136.451 672.449 133.033 681.824 130.689C691.199 128.346 702.234 127.174 714.93 127.174H736.17Z" fill="#FF6600"/>
<path d="M439.246 99.0488V224H389.881V65.5039H436.17L439.246 99.0488ZM433.24 139.332L421.961 139.625C421.961 128.492 423.279 118.238 425.916 108.863C428.553 99.4883 432.459 91.334 437.635 84.4004C442.811 77.4668 449.158 72.0957 456.678 68.2871C464.295 64.4785 473.084 62.5742 483.045 62.5742C489.979 62.5742 496.277 63.6484 501.941 65.7969C507.605 67.8477 512.488 71.1191 516.59 75.6113C520.691 80.0059 523.816 85.7676 525.965 92.8965C528.211 99.9277 529.334 108.375 529.334 118.238V224H479.969V124.537C479.969 117.799 479.188 112.721 477.625 109.303C476.16 105.885 474.012 103.59 471.18 102.418C468.348 101.246 464.881 100.66 460.779 100.66C456.482 100.66 452.625 101.637 449.207 103.59C445.789 105.543 442.859 108.277 440.418 111.793C438.074 115.211 436.268 119.264 434.998 123.951C433.826 128.639 433.24 133.766 433.24 139.332ZM523.768 139.332L509.998 139.625C509.998 128.492 511.219 118.238 513.66 108.863C516.199 99.4883 519.959 91.334 524.939 84.4004C530.018 77.4668 536.316 72.0957 543.836 68.2871C551.355 64.4785 560.096 62.5742 570.057 62.5742C577.283 62.5742 583.924 63.6484 589.979 65.7969C596.033 67.9453 601.258 71.4121 605.652 76.1973C610.047 80.9824 613.465 87.3301 615.906 95.2402C618.348 103.053 619.568 112.721 619.568 124.244V224H570.057V124.244C570.057 117.701 569.275 112.77 567.713 109.449C566.248 106.031 564.1 103.736 561.268 102.564C558.436 101.295 555.066 100.66 551.16 100.66C546.473 100.66 542.42 101.637 539.002 103.59C535.584 105.543 532.703 108.277 530.359 111.793C528.113 115.211 526.453 119.264 525.379 123.951C524.305 128.639 523.768 133.766 523.768 139.332ZM730.164 184.156V118.824C730.164 114.332 729.529 110.475 728.26 107.252C726.99 104.029 724.988 101.539 722.254 99.7812C719.52 97.9258 715.857 96.998 711.268 96.998C707.557 96.998 704.383 97.6328 701.746 98.9023C699.109 100.172 697.107 102.076 695.74 104.615C694.373 107.154 693.689 110.377 693.689 114.283H644.324C644.324 106.959 645.936 100.172 649.158 93.9219C652.479 87.5742 657.166 82.0566 663.221 77.3691C669.373 72.6816 676.697 69.0684 685.193 66.5293C693.787 63.8926 703.357 62.5742 713.904 62.5742C726.502 62.5742 737.732 64.6738 747.596 68.873C757.557 73.0723 765.418 79.3711 771.18 87.7695C776.941 96.0703 779.822 106.52 779.822 119.117V184.01C779.822 194.361 780.408 202.223 781.58 207.594C782.752 212.867 784.412 217.506 786.561 221.51V224H737.049C734.705 219.117 732.947 213.16 731.775 206.129C730.701 199 730.164 191.676 730.164 184.156ZM736.17 127.174L736.463 153.541H714.637C710.047 153.541 706.141 154.176 702.918 155.445C699.793 156.715 697.254 158.473 695.301 160.719C693.445 162.867 692.078 165.309 691.199 168.043C690.418 170.777 690.027 173.658 690.027 176.686C690.027 179.615 690.711 182.252 692.078 184.596C693.543 186.842 695.496 188.6 697.938 189.869C700.379 191.139 703.113 191.773 706.141 191.773C711.609 191.773 716.248 190.748 720.057 188.697C723.963 186.549 726.941 183.961 728.992 180.934C731.043 177.906 732.068 175.074 732.068 172.438L742.908 192.652C740.955 196.559 738.709 200.514 736.17 204.518C733.729 208.521 730.652 212.232 726.941 215.65C723.328 218.971 718.885 221.705 713.611 223.854C708.338 225.904 701.941 226.93 694.422 226.93C684.656 226.93 675.672 224.928 667.469 220.924C659.363 216.92 652.869 211.354 647.986 204.225C643.104 196.998 640.662 188.697 640.662 179.322C640.662 171.119 642.127 163.795 645.057 157.35C648.084 150.904 652.625 145.436 658.68 140.943C664.734 136.451 672.449 133.033 681.824 130.689C691.199 128.346 702.234 127.174 714.93 127.174H736.17Z" fill="#343434"/>
</svg>
