<?xml version="1.0" standalone="no"?>
<!DOCTYPE svg PUBLIC "-//W3C//DTD SVG 20010904//EN"
 "http://www.w3.org/TR/2001/REC-SVG-20010904/DTD/svg10.dtd">
<svg version="1.0" xmlns="http://www.w3.org/2000/svg"
 width="516.000000pt" height="516.000000pt" viewBox="0 0 516.000000 516.000000"
 preserveAspectRatio="xMidYMid meet">
<metadata>
Created by potrace 1.14, written by Peter Selinger 2001-2017
</metadata>
<g transform="translate(0.000000,516.000000) scale(0.100000,-0.100000)"
fill="#000000" stroke="none">
<path d="M125 5106 c-43 -19 -83 -63 -95 -105 -8 -25 -10 -799 -8 -2462 l3
-2425 25 -37 c14 -21 43 -46 66 -57 40 -20 65 -20 1904 -20 1839 0 1864 0
1904 20 23 11 52 36 66 57 l25 37 3 2073 2 2073 -430 430 -430 430 -1503 0
c-1223 -1 -1508 -3 -1532 -14z"/>
<path d="M4622 5102 c-72 -30 -133 -101 -147 -172 -2 -8 -4 -95 -4 -192 l-1
-176 -27 -6 c-16 -4 -38 -21 -50 -39 l-23 -33 0 -1821 c0 -1790 0 -1822 20
-1867 11 -26 20 -50 21 -54 1 -4 5 -16 9 -27 4 -11 22 -60 40 -110 17 -49 48
-133 67 -185 20 -52 55 -151 79 -219 25 -68 52 -137 61 -152 23 -39 73 -55
123 -40 49 15 48 11 214 469 l136 373 0 1815 c0 1702 -1 1818 -17 1845 -10 16
-32 35 -50 41 l-33 12 -1 181 c0 202 -9 240 -68 300 -54 55 -94 69 -206 72
-77 2 -110 -1 -143 -15z"/>
</g>
</svg>
